# xmcd
#
# Track frame offsets: 
#        150
#        26626
#        53463
#        83365
#        111381
#        128589
#        171835
#        200653
#        215845
#        233406
#        262406
#
# Disc length: 3792 seconds
#
# Revision: 0
# Processed by: cddbd v1.5.2PL0 Copyright (c) Steve Scherf et al.
# Submitted via: ExactAudioCopy v1.3
#
DISCID=950ece0b
DTITLE=Eric Clapton - Wonderful Japan
DYEAR=2014
DGENRE=Blues
TTITLE0=Pretending
TTITLE1=Key To The Highway
TTITLE2=Tell The Truth
TTITLE3=Hoochie Coochie Man
TTITLE4=Wonderful Tonight
TTITLE5=I Shot The Sheriff
TTITLE6=Driftin' Blues
TTITLE7=Nobody Knows You
TTITLE8=Alabama Woman
TTITLE9=Layla
TTITLE10=Tears In Heaven
EXTD=
EXTT0=
EXTT1=
EXTT2=
EXTT3=
EXTT4=
EXTT5=
EXTT6=
EXTT7=
EXTT8=
EXTT9=
EXTT10=
PLAYORDER=
